<svg xmlns="http://www.w3.org/2000/svg" viewBox="0 0 128 128" fill="none">
  <defs>
    <linearGradient id="ng" x1="0" y1="0" x2="1" y2="1">
      <stop offset="0%" stop-color="#06b6d4"/>
      <stop offset="100%" stop-color="#8b5cf6"/>
    </linearGradient>
  </defs>
  <!-- Connection lines -->
  <line x1="64" y1="32" x2="32" y2="72" stroke="url(#ng)" stroke-width="4" opacity="0.5"/>
  <line x1="64" y1="32" x2="96" y2="72" stroke="url(#ng)" stroke-width="4" opacity="0.5"/>
  <line x1="32" y1="72" x2="96" y2="72" stroke="url(#ng)" stroke-width="4" opacity="0.5"/>
  <line x1="32" y1="72" x2="24" y2="102" stroke="url(#ng)" stroke-width="3" opacity="0.4"/>
  <line x1="32" y1="72" x2="52" y2="102" stroke="url(#ng)" stroke-width="3" opacity="0.4"/>
  <line x1="96" y1="72" x2="80" y2="102" stroke="url(#ng)" stroke-width="3" opacity="0.4"/>
  <line x1="96" y1="72" x2="106" y2="102" stroke="url(#ng)" stroke-width="3" opacity="0.4"/>
  <!-- Nodes -->
  <circle cx="64" cy="32" r="10" fill="url(#ng)"/>
  <circle cx="32" cy="72" r="9" fill="url(#ng)" opacity="0.85"/>
  <circle cx="96" cy="72" r="9" fill="url(#ng)" opacity="0.85"/>
  <circle cx="24" cy="102" r="6" fill="url(#ng)" opacity="0.6"/>
  <circle cx="52" cy="102" r="6" fill="url(#ng)" opacity="0.6"/>
  <circle cx="80" cy="102" r="6" fill="url(#ng)" opacity="0.6"/>
  <circle cx="106" cy="102" r="6" fill="url(#ng)" opacity="0.6"/>
  <!-- Signal arcs on top node -->
  <path d="M52 20 A16 16 0 0 1 76 20" stroke="url(#ng)" stroke-width="3" fill="none" stroke-linecap="round" opacity="0.5"/>
</svg>
